<svg width="13" height="10" viewBox="0 0 13 10" fill="none" xmlns="http://www.w3.org/2000/svg">
<g id="Layer_1" clip-path="url(#clip0_1964_1161)">
<path id="Vector" d="M0.5 1.82187C0.936364 2.18551 1.3 2.47642 1.66364 2.76732C2.82727 3.71277 3.91818 4.65823 5.08182 5.60368C5.88182 6.25822 7.04545 6.25822 7.84546 5.60368C9.3 4.36732 10.8273 3.20369 12.2818 1.96733C12.2818 1.96733 12.3545 1.96733 12.4273 1.82187C12.4273 1.96733 12.4273 2.11278 12.4273 2.18551C12.4273 3.7855 12.4273 5.45822 12.4273 7.05822C12.4273 8.29457 11.4818 9.24003 10.2455 9.24003C7.7 9.24003 5.15455 9.24003 2.60909 9.24003C1.44545 9.24003 0.5 8.29457 0.5 7.05822C0.5 5.45822 0.5 3.85823 0.5 2.18551C0.5 2.04005 0.5 1.96733 0.5 1.74915V1.82187Z" fill="#ca98e9"/>
<path id="Vector_2" d="M1.00903 0.803659C1.37267 0.367297 1.80903 0.149116 2.31812 0.00366211C2.46358 0.00366211 2.60903 0.00366211 2.75449 0.00366211C5.22721 0.00366211 7.77267 0.00366211 10.2454 0.00366211C10.8999 0.00366211 11.409 0.221843 11.8454 0.658205C11.8454 0.658205 11.8454 0.730932 11.9909 0.803659C11.8454 0.949113 11.6999 1.02184 11.6272 1.16729C10.1727 2.33093 8.79085 3.49456 7.33631 4.73092C6.82721 5.16728 6.31812 5.16728 5.80903 4.73092C4.20903 3.42183 2.68176 2.11275 1.08176 0.876386C1.08176 0.876386 1.08176 0.876386 1.00903 0.803659Z" fill="#ca98e9"/>
</g>
<defs>
<clipPath id="clip0_1964_1161">
<rect width="12" height="9.23633" fill="white" transform="translate(0.5 0.00366211)"/>
</clipPath>
</defs>
</svg>
