<svg width="536" height="475" viewBox="0 0 536 475" fill="none" xmlns="http://www.w3.org/2000/svg">
<path d="M313.371 172.291C313.371 172.291 312.573 129.568 351.197 129.568C391.916 129.568 384.376 100.658 423.658 103.017C450.208 104.614 457.095 132.656 472.362 136.799C487.629 140.942 502.004 145.97 502.004 171.482L313.371 172.291Z" fill="white"/>
<path d="M396.835 385.556C396.835 385.556 396.246 354.038 424.74 354.038C454.783 354.038 449.219 332.709 478.198 334.45C497.786 335.629 502.864 356.317 514.131 359.374C525.397 362.431 536 366.14 536 384.963L396.835 385.556Z" fill="white"/>
<path d="M0.00111432 241.108C0.00111432 241.108 -0.707421 203.149 33.6084 203.149C69.7859 203.149 63.0861 177.463 97.9835 179.563C121.569 180.982 127.688 205.895 141.255 209.576C154.822 213.257 167.59 217.724 167.59 240.391L0.00111432 241.108Z" fill="white"/>
<path opacity="0.1" d="M313.371 172.291C313.371 172.291 312.573 129.568 351.197 129.568C391.916 129.568 384.376 100.658 423.658 103.017C450.208 104.614 457.095 132.656 472.362 136.799C487.629 140.942 502.004 145.97 502.004 171.482L313.371 172.291Z" fill="#367CFF"/>
<path opacity="0.1" d="M396.835 385.556C396.835 385.556 396.246 354.038 424.74 354.038C454.783 354.038 449.219 332.709 478.198 334.45C497.786 335.629 502.864 356.317 514.131 359.374C525.397 362.431 536 366.14 536 384.963L396.835 385.556Z" fill="#367CFF"/>
<path opacity="0.1" d="M0.00111432 241.108C0.00111432 241.108 -0.707421 203.149 33.6084 203.149C69.7859 203.149 63.0861 177.463 97.9835 179.563C121.569 180.982 127.688 205.895 141.255 209.576C154.822 213.257 167.59 217.724 167.59 240.391L0.00111432 241.108Z" fill="#367CFF"/>
<path d="M401.327 80.1982C401.029 79.72 400.832 79.1862 400.747 78.6293C400.663 78.0724 400.692 77.5042 400.835 76.9591C400.977 76.4141 401.229 75.9038 401.575 75.4593C401.921 75.0149 402.354 74.6455 402.847 74.3738C403.82 73.8811 404.945 73.7765 405.992 74.081C407.04 74.3855 407.933 75.0765 408.491 76.0143L411.45 80.7682L410.019 64.0602C409.713 61.9178 410.697 59.0966 413.12 58.9069C415.068 58.6245 416.656 56.0062 418.988 57.1577C419.009 57.1516 437.304 71.5657 437.592 73.5505L438.719 99.9982C439.943 108.42 411.326 106.732 411.326 106.732L401.327 80.1982Z" fill="#E98862"/>
<g opacity="0.1">
<path d="M401.327 80.1982C401.029 79.72 400.832 79.1862 400.747 78.6293C400.663 78.0724 400.692 77.5042 400.835 76.9591C400.977 76.4141 401.229 75.9038 401.575 75.4593C401.921 75.0149 402.354 74.6455 402.847 74.3738C403.82 73.8811 404.945 73.7765 405.992 74.081C407.04 74.3855 407.933 75.0765 408.491 76.0143L411.45 80.7682L410.019 64.0602C409.713 61.9178 410.697 59.0966 413.12 58.9069C415.068 58.6245 416.656 56.0062 418.988 57.1577C419.009 57.1516 437.304 71.5657 437.592 73.5505L438.719 99.9982C439.943 108.42 411.326 106.732 411.326 106.732L401.327 80.1982Z" fill="#0C0C0C"/>
</g>
<path d="M205.752 209.935C205.752 209.935 204.109 234.586 198.563 243.526C182.598 269.272 177.973 298.235 193.961 313.367C209.949 328.5 311.925 328.712 319.651 293.908C326.155 264.607 312.197 261.456 308.801 237.286C307.265 226.349 303.037 203.416 303.037 203.416" fill="#0A0A0A"/>
<path d="M293.256 288.805C293.079 288.782 291.126 321.194 253.472 318.368C227.405 316.416 218.11 288.757 217.51 288.757C220.321 288.159 225.053 287.291 226.301 286.625C230.407 284.419 235.483 282.124 236.808 274.153C237.573 269.562 236.277 246.055 236.675 241.404L276.689 250.335C276.129 260.152 272.216 282.912 285.932 286.939C288.217 287.61 290.675 288.223 293.256 288.805Z" fill="#E98862"/>
<path opacity="0.5" d="M277.252 277.643C276.625 275.623 276.221 273.541 276.048 271.433C275.608 266.623 275.696 261.779 276.31 256.988C268.178 255.89 260.517 252.534 254.197 247.3C253.454 250.044 249.368 262.034 250.5 264.641C252.636 269.571 262.685 277.643 277.252 277.643Z" fill="#0C0C0C"/>
<path d="M272.078 267.544C256.302 269.075 235.891 262.76 231.662 241.752L227.847 222.796C223.618 201.788 231.225 182.537 251.006 178.555C270.786 174.576 288.999 188.629 293.227 209.637L294.916 218.029C296.539 226.09 300.224 264.821 272.078 267.544Z" fill="#E98862"/>
<path d="M283.299 242.42C278.173 245.027 272.325 245.851 266.679 244.762C266.483 244.725 266.281 244.745 266.096 244.818C265.911 244.892 265.751 245.017 265.635 245.178C265.518 245.339 265.45 245.53 265.438 245.729C265.427 245.928 265.472 246.126 265.569 246.3C267.252 249.266 271.245 254.334 278.093 252.268C282.517 250.933 284.189 246.383 284.808 243.569C284.851 243.374 284.836 243.172 284.768 242.985C284.699 242.798 284.578 242.635 284.419 242.514C284.261 242.393 284.071 242.321 283.873 242.304C283.674 242.287 283.475 242.328 283.299 242.42Z" fill="white"/>
<path d="M283.62 219.624C284.988 219.624 286.097 218.515 286.097 217.147C286.097 215.779 284.988 214.67 283.62 214.67C282.252 214.67 281.144 215.779 281.144 217.147C281.144 218.515 282.252 219.624 283.62 219.624Z" fill="#0C0C0C"/>
<path d="M259.82 223.791C261.187 223.791 262.296 222.682 262.296 221.314C262.296 219.946 261.187 218.837 259.82 218.837C258.452 218.837 257.343 219.946 257.343 221.314C257.343 222.682 258.452 223.791 259.82 223.791Z" fill="#0C0C0C"/>
<path opacity="0.1" d="M262.05 240.016C264.646 239.706 266.566 237.911 266.339 236.007C266.112 234.103 263.823 232.811 261.227 233.12C258.631 233.43 256.711 235.225 256.938 237.129C257.165 239.033 259.454 240.326 262.05 240.016Z" fill="#0C0C0C"/>
<path opacity="0.1" d="M289.483 232.402C289.712 234.303 292.003 235.594 294.6 235.288C295.049 235.234 295.491 235.134 295.918 234.989C296.039 232.722 296.046 230.54 295.98 228.521C295.259 228.341 294.511 228.297 293.774 228.392C291.177 228.699 289.258 230.492 289.483 232.402Z" fill="#0C0C0C"/>
<path opacity="0.5" d="M278.011 238.279L278.05 238.273C278.851 238.106 279.643 237.895 280.422 237.64C281.583 237.252 283.1 236.613 282.892 235.563C282.651 234.365 276.77 222.111 276.102 220.719C276.044 220.597 275.939 220.504 275.812 220.459C275.684 220.414 275.544 220.422 275.422 220.481C275.301 220.539 275.207 220.644 275.162 220.771C275.118 220.899 275.126 221.039 275.184 221.16C277.692 226.379 281.73 234.96 281.892 235.766C281.765 236.142 279.839 236.876 277.85 237.277C277.718 237.3 277.601 237.374 277.524 237.483C277.446 237.592 277.415 237.727 277.436 237.859C277.457 237.991 277.529 238.109 277.637 238.188C277.745 238.267 277.879 238.301 278.011 238.282L278.011 238.279Z" fill="#0C0C0C"/>
<path d="M212.065 229.601L229.798 226.137C243.194 220.535 246.993 197.19 246.993 197.19C246.993 197.19 263.526 212.934 303.037 203.413C303.037 203.413 294.455 148.256 236.113 164.999C217.301 170.397 203.976 189.572 205.958 214.969C207.347 232.767 212.065 229.601 212.065 229.601Z" fill="#0A0A0A"/>
<path d="M234.18 247.906C228.169 249.115 222.001 243.665 220.789 237.652C219.578 231.64 223.786 227.345 229.797 226.135L233.705 229.539L239.346 246.863L234.18 247.906Z" fill="#E98862"/>
<path d="M280.363 210.945C281.867 209.881 283.626 209.235 285.461 209.072C286.382 208.985 287.31 209.036 288.216 209.226C289.13 209.412 290.017 209.713 290.856 210.12L290.883 210.132C290.976 210.173 291.081 210.176 291.177 210.141C291.272 210.105 291.349 210.034 291.393 209.942C291.436 209.85 291.441 209.744 291.408 209.648C291.375 209.552 291.305 209.473 291.214 209.427C290.325 208.958 289.38 208.602 288.402 208.369C287.416 208.129 286.401 208.039 285.389 208.101C283.34 208.215 281.358 208.876 279.65 210.014C279.522 210.102 279.434 210.236 279.405 210.389C279.376 210.541 279.409 210.699 279.496 210.827C279.583 210.955 279.718 211.044 279.87 211.073C280.023 211.102 280.18 211.069 280.308 210.982L280.322 210.972L280.363 210.945Z" fill="#0C0C0C"/>
<path d="M264.165 213.183C262.151 212.783 260.067 212.931 258.129 213.61C257.171 213.94 256.269 214.412 255.451 215.01C254.637 215.6 253.9 216.29 253.258 217.064C253.19 217.141 253.155 217.241 253.161 217.343C253.166 217.445 253.212 217.541 253.287 217.61C253.363 217.679 253.462 217.716 253.565 217.712C253.667 217.708 253.763 217.664 253.833 217.589L253.854 217.568C254.473 216.87 255.178 216.253 255.951 215.731C256.716 215.209 257.555 214.806 258.44 214.535C260.198 213.984 262.07 213.908 263.867 214.314L263.911 214.325C264.062 214.362 264.221 214.337 264.353 214.256C264.486 214.175 264.581 214.045 264.617 213.895C264.654 213.744 264.629 213.585 264.548 213.453C264.467 213.32 264.337 213.225 264.187 213.189L264.165 213.183Z" fill="#0C0C0C"/>
<path d="M229.809 225.846C241.73 221.408 245.685 213.177 246.904 207.051C247.693 202.965 247.619 198.76 246.688 194.705L246.319 194.806C247.235 198.809 247.306 202.959 246.526 206.99C245.324 213.016 241.424 221.116 229.676 225.488L229.809 225.846Z" fill="#0C0C0C"/>
<path d="M94.0924 136.168L86.2649 111.157C86.0928 110.608 85.8082 110.1 85.4292 109.666C85.0502 109.233 84.5851 108.883 84.0635 108.639C83.5419 108.395 82.9752 108.262 82.3995 108.25C81.8239 108.237 81.2518 108.344 80.7198 108.564C79.7501 109.001 78.9774 109.783 78.5514 110.758C78.1255 111.732 78.0766 112.83 78.4143 113.839L80.0931 119.202L67.0732 104.76C65.6538 103.128 62.8648 102.035 61.1439 103.748C60.4373 104.364 59.9603 105.201 59.7906 106.123C59.6209 107.044 59.7687 107.996 60.2097 108.823C60.1908 108.833 60.1731 108.844 60.1569 108.858C60.1464 108.87 60.1366 108.883 60.1278 108.896L57.9395 106.381C57.5338 105.915 57.0293 105.546 56.4627 105.3C55.8962 105.054 55.2818 104.937 54.6646 104.959C54.0473 104.98 53.4426 105.14 52.8946 105.424C52.3466 105.709 51.869 106.113 51.4968 106.606C50.9262 107.394 50.6434 108.353 50.6957 109.325C50.7481 110.296 51.1325 111.22 51.7845 111.941L52.7157 113.013C52.6975 113.054 52.6866 113.098 52.6836 113.143C51.8864 112.566 50.9098 112.291 49.9286 112.368C48.9473 112.445 48.0253 112.868 47.3275 113.562C46.5864 114.344 46.1674 115.376 46.1541 116.453C46.1408 117.53 46.5341 118.573 47.2555 119.373L49.5694 122.031C49.5101 122.016 49.4483 122.016 49.389 122.03C49.3297 122.044 49.2746 122.072 49.2281 122.112C49.1754 122.162 49.1385 122.226 49.1218 122.296C48.2691 121.98 47.3362 121.952 46.4662 122.217C45.5963 122.482 44.8375 123.026 44.3066 123.765C43.7648 124.552 43.5045 125.499 43.568 126.452C43.6314 127.406 44.0149 128.31 44.6563 129.018L64.1778 151.447C66.9092 154.584 70.5151 156.835 74.5334 157.91C78.5516 158.985 82.7994 158.835 86.7324 157.481C90.1236 156.313 92.9255 153.868 94.543 150.667C96.1605 147.465 96.4661 143.759 95.3947 140.336L94.0924 136.168Z" fill="#E98862"/>
<g opacity="0.2">
<path d="M73.025 123.183C72.949 123.249 72.8503 123.282 72.7501 123.276C72.6499 123.269 72.5562 123.224 72.4893 123.149L60.1274 109.398C60.0596 109.323 60.0245 109.223 60.0298 109.122C60.0352 109.02 60.0806 108.925 60.1561 108.857C60.2316 108.79 60.331 108.754 60.4324 108.76C60.5338 108.765 60.6288 108.811 60.6967 108.886L73.0602 122.637C73.128 122.712 73.1632 122.811 73.1579 122.913C73.1525 123.014 73.1072 123.109 73.0318 123.177L73.025 123.183Z" fill="#0C0C0C"/>
</g>
<g opacity="0.2">
<path d="M67.1113 128.803C67.0353 128.869 66.9366 128.902 66.8364 128.896C66.7362 128.889 66.6426 128.844 66.5757 128.769L52.7799 113.423C52.712 113.347 52.6769 113.248 52.6822 113.147C52.6875 113.046 52.7328 112.951 52.8082 112.883C52.8852 112.818 52.9839 112.785 53.0844 112.79C53.1848 112.796 53.2795 112.839 53.3491 112.912L67.1465 128.257C67.2143 128.332 67.2495 128.432 67.2442 128.533C67.2389 128.634 67.1935 128.729 67.1182 128.797L67.1113 128.803Z" fill="#0C0C0C"/>
</g>
<g opacity="0.2">
<path d="M60.7408 134.928C60.6648 134.993 60.566 135.026 60.4658 135.02C60.3656 135.013 60.272 134.967 60.2052 134.892L49.2007 122.654C49.1328 122.579 49.0977 122.48 49.1031 122.378C49.1085 122.277 49.1539 122.182 49.2294 122.114C49.3049 122.046 49.4042 122.011 49.5056 122.016C49.607 122.022 49.7021 122.067 49.77 122.142L60.7768 134.385C60.8445 134.46 60.8795 134.56 60.8741 134.661C60.8686 134.762 60.8232 134.857 60.7477 134.925L60.7408 134.928Z" fill="#0C0C0C"/>
</g>
<path d="M398.508 90.905L373.453 211.852L288.137 298.036L332.933 339.754L417.52 243.178L418.027 242.608C421.009 239.176 423.089 235.055 424.078 230.618L452.797 102.618L398.508 90.905Z" fill="#367CFF"/>
<path d="M252.197 310.306C226.113 309.076 225.015 286.934 225.015 286.934C225.015 286.934 212.09 287.769 203.498 288.932C189.43 290.835 180.151 295.605 172.766 302.989C165.896 309.86 167.845 331.291 167.845 331.291L174.74 474.682H332.172L339.616 332.08C339.616 332.08 348.073 313.984 333.698 298.774C323.273 287.746 296.36 286.934 285.525 286.934C285.348 286.934 287.723 311.981 252.197 310.306Z" fill="#367CFF"/>
<path d="M129.642 235.846L101.433 134.963L48.0918 150.43L80.7006 259.041C82.1919 263.964 85.0235 268.375 88.8786 271.78L89.4142 272.249L175.333 347.77L214.147 300.437L129.642 235.846Z" fill="#367CFF"/>
<path d="M404.596 60.6651L403.305 61.545C400.026 63.7819 396.338 65.3509 392.453 66.1625C388.567 66.974 384.56 67.0123 380.66 66.2751C376.76 65.5378 373.043 64.0395 369.721 61.8657C366.4 59.6919 363.54 56.8851 361.303 53.6058L349.219 35.8855C349.06 35.6517 348.948 35.3889 348.89 35.112C348.832 34.8351 348.83 34.5495 348.882 34.2715C348.935 33.9936 349.042 33.7287 349.197 33.492C349.352 33.2553 349.552 33.0515 349.785 32.8922L397.453 0.374448C397.925 0.0526326 398.506 -0.0685795 399.067 0.0374498C399.629 0.143479 400.125 0.468074 400.447 0.9399L412.537 18.6633C414.774 21.9425 416.342 25.6301 417.154 29.5157C417.965 33.4013 418.004 37.4086 417.266 41.309C416.529 45.2093 415.03 48.9261 412.856 52.2473C410.682 55.5684 407.875 58.4288 404.596 60.6651Z" fill="#0CBC8B"/>
<path d="M380.758 26.542L387.998 30.6279C388.048 30.6558 388.103 30.6713 388.16 30.673C388.216 30.6747 388.273 30.6627 388.324 30.6379L395.795 26.9888C395.853 26.9605 395.918 26.949 395.983 26.9557C396.048 26.9624 396.11 26.9869 396.161 27.0267C396.213 27.0664 396.252 27.1197 396.275 27.1806C396.298 27.2414 396.304 27.3075 396.291 27.3714L394.643 35.5203C394.632 35.576 394.634 35.6335 394.65 35.6881C394.666 35.7426 394.695 35.7924 394.734 35.8333L400.513 41.8107C400.558 41.8576 400.589 41.9163 400.603 41.9801C400.617 42.0439 400.613 42.1103 400.591 42.1717C400.569 42.2332 400.53 42.2873 400.479 42.3279C400.428 42.3685 400.366 42.3939 400.301 42.4014L392.041 43.3533C391.985 43.3597 391.931 43.3798 391.884 43.4118C391.837 43.4438 391.799 43.4867 391.772 43.5369L387.87 50.8824C387.839 50.9399 387.793 50.9877 387.736 51.0204C387.68 51.0531 387.615 51.0693 387.55 51.0673C387.485 51.0653 387.422 51.0452 387.367 51.0091C387.313 50.9731 387.27 50.9226 387.242 50.8633L383.786 43.302C383.763 43.2503 383.727 43.2051 383.682 43.1703C383.637 43.1355 383.584 43.1122 383.528 43.1023L375.341 41.663C375.277 41.6518 375.217 41.6227 375.168 41.5792C375.12 41.5356 375.084 41.4794 375.066 41.4167C375.047 41.354 375.047 41.2875 375.065 41.2246C375.082 41.1617 375.117 41.105 375.165 41.0608L381.286 35.4369C381.328 35.3985 381.359 35.3506 381.379 35.2973C381.398 35.244 381.404 35.1869 381.396 35.1309L380.234 26.8985C380.224 26.833 380.233 26.7659 380.259 26.7051C380.285 26.6442 380.328 26.5921 380.383 26.5547C380.438 26.5174 380.502 26.4964 380.569 26.4941C380.635 26.4918 380.7 26.5084 380.758 26.542Z" fill="#FAFAFA"/>
<path d="M406.568 51.96L400.523 56.0811L399.299 56.9136L394.479 60.2038C394.479 60.2038 427.322 90.2202 425.757 126.655L440.165 116.828L441.389 115.995L457.017 105.336C422.522 93.4935 406.568 51.96 406.568 51.96Z" fill="#0CBC8B"/>
<path d="M461.268 93.7215L413.395 126.373C412.106 127.252 411.774 129.009 412.653 130.298L423.459 146.141C424.338 147.43 426.095 147.762 427.384 146.883L475.256 114.231C476.545 113.352 476.878 111.595 475.998 110.306L465.193 94.4635C464.314 93.1746 462.556 92.8424 461.268 93.7215Z" fill="#0CBC8B"/>
<path d="M369.898 67.5629C367.584 69.1467 364.89 70.0857 362.092 70.2833C359.295 70.4808 356.495 69.9299 353.981 68.6871C351.467 67.4443 349.329 65.5544 347.788 63.2118C346.246 60.8691 345.356 58.1582 345.209 55.3577C345.062 52.5571 345.664 49.7679 346.952 47.2769C348.24 44.7858 350.168 42.6826 352.538 41.1836C354.909 39.6846 357.635 38.8438 360.438 38.7476C363.241 38.6514 366.018 39.3033 368.486 40.6362C370.869 41.9226 372.881 43.8001 374.328 46.0884C375.776 48.3767 376.611 50.9989 376.753 53.703C376.895 56.4071 376.339 59.1022 375.138 61.5295C373.938 63.9567 372.133 66.0344 369.898 67.5629ZM355.184 46.062C353.334 47.325 351.949 49.158 351.238 51.2815C350.527 53.4051 350.53 55.7028 351.246 57.8246C351.962 59.9463 353.353 61.7757 355.205 63.0341C357.057 64.2924 359.27 64.9106 361.507 64.7946C363.743 64.6785 365.88 63.8345 367.592 62.3911C369.305 60.9478 370.498 58.9843 370.991 56.7998C371.483 54.6153 371.248 52.3296 370.322 50.291C369.395 48.2525 367.827 46.5728 365.857 45.508C364.197 44.6144 362.325 44.1935 360.443 44.2911C358.561 44.3888 356.741 45.0014 355.184 46.062Z" fill="#0CBC8B"/>
<path d="M423.349 31.113C422.776 31.5033 422.179 31.8558 421.56 32.1682C417.821 34.0566 413.485 34.3823 409.506 33.0738C405.527 31.7653 402.231 28.9296 400.343 25.1907C398.454 21.4518 398.128 17.1158 399.437 13.1367C400.745 9.15759 403.581 5.86126 407.32 3.97287C410.899 2.16682 415.03 1.78893 418.877 2.9158C422.723 4.04266 425.998 6.58998 428.036 10.0414C430.075 13.4929 430.724 17.5902 429.854 21.503C428.983 25.4158 426.658 28.8512 423.349 31.113ZM408.639 9.60291C407.012 10.7172 405.741 12.2765 404.977 14.0943C404.213 15.9121 403.989 17.9114 404.332 19.8532C404.675 21.795 405.569 23.597 406.909 25.0437C408.249 26.4903 409.977 27.5204 411.887 28.0108C413.797 28.5011 415.807 28.4309 417.678 27.8085C419.549 27.1862 421.201 26.0381 422.437 24.5015C423.673 22.9649 424.439 21.1049 424.646 19.1439C424.852 17.183 424.489 15.2041 423.6 13.444C422.993 12.2409 422.154 11.1693 421.133 10.2903C420.111 9.41134 418.926 8.74222 417.646 8.32116C416.365 7.9001 415.015 7.73536 413.671 7.83634C412.327 7.93732 411.016 8.30204 409.813 8.90968C409.407 9.11488 409.015 9.34645 408.639 9.60291Z" fill="#0CBC8B"/>
<path d="M420.04 79.9587C419.604 79.3605 419.375 78.6361 419.389 77.896C419.403 77.1559 419.658 76.4406 420.116 75.859C420.064 75.8299 419.916 75.7963 419.971 75.706L417.424 76.9455C416.682 77.3272 415.826 77.4271 415.015 77.2268C414.205 77.0266 413.494 76.5396 413.015 75.856C412.563 75.1656 412.384 74.3322 412.512 73.5173C412.64 72.7025 413.066 71.9642 413.708 71.4456C413.676 71.4356 413.66 71.4012 413.631 71.3813L412.584 71.8909C411.883 72.2475 411.08 72.3509 410.311 72.1836C409.542 72.0163 408.855 71.5885 408.365 70.9727C408.066 70.5802 407.858 70.1262 407.756 69.6435C407.654 69.1608 407.66 68.6614 407.774 68.1814C407.888 67.7013 408.107 67.2526 408.416 66.8675C408.725 66.4825 409.115 66.1708 409.558 65.9548L411.974 64.7788C411.966 64.7673 411.95 64.7658 411.943 64.752C411.936 64.7382 411.943 64.716 411.938 64.6984C411.204 64.8702 410.433 64.7876 409.752 64.4641C409.071 64.1407 408.52 63.5955 408.189 62.9179C407.221 61.2223 408.652 59.2903 410.213 58.5305L415.32 56.5181C416.108 56.2079 416.96 56.0974 417.801 56.1963C418.643 56.2952 419.446 56.6005 420.141 57.0851C426.156 61.2736 441.607 72.588 436.621 75.0143L424.347 80.9871C423.617 81.3188 422.797 81.3977 422.017 81.2115C421.237 81.0252 420.541 80.5844 420.04 79.9587Z" fill="#E98862"/>
<path d="M42.4155 474.685H490.897C491.1 474.685 491.295 474.604 491.438 474.461C491.582 474.317 491.662 474.123 491.662 473.92C491.662 473.717 491.582 473.522 491.438 473.379C491.295 473.235 491.1 473.155 490.897 473.155H42.4155C42.2126 473.155 42.018 473.235 41.8745 473.379C41.731 473.522 41.6504 473.717 41.6504 473.92C41.6504 474.123 41.731 474.317 41.8745 474.461C42.018 474.604 42.2126 474.685 42.4155 474.685Z" fill="#292A2E"/>
<path d="M23.7647 307.761L18.0635 309.99L26.1051 330.563L31.8063 328.335L23.7647 307.761Z" fill="#367CFF"/>
<path d="M486.212 244.751L471.475 261.206L476.034 265.29L490.772 248.835L486.212 244.751Z" fill="#367CFF"/>
<path d="M418.647 318.397L414.977 323.297L432.656 336.54L436.326 331.64L418.647 318.397Z" fill="#0CBC8B"/>
<path d="M152.953 143.476L136.865 158.614L141.06 163.072L157.148 147.934L152.953 143.476Z" fill="#367CFF"/>
<path d="M331.139 117.798L325.832 120.848L336.842 139.999L342.149 136.949L331.139 117.798Z" fill="#367CFF"/>
<path d="M114.684 381.201L102.896 399.882L108.072 403.149L119.861 384.468L114.684 381.201Z" fill="#0CBC8B"/>
<path d="M411.305 426.089L401.433 445.849L406.909 448.585L416.781 428.824L411.305 426.089Z" fill="#0CBC8B"/>
<path d="M491.421 374.096L485.559 375.854L491.902 397.013L497.764 395.255L491.421 374.096Z" fill="#367CFF"/>
<path d="M62.5267 432.354L59.1172 437.44L77.4734 449.744L80.883 444.657L62.5267 432.354Z" fill="#367CFF"/>
<path d="M258.517 70.2064L253.21 73.2571L264.219 92.4076L269.526 89.3569L258.517 70.2064Z" fill="#0CBC8B"/>
</svg>
