<?xml version="1.0" encoding="UTF-8"?>
<svg id="Logo" xmlns="http://www.w3.org/2000/svg" viewBox="0 0 720.1872 214.6752">
  <g id="NVIDIA_Cloud_Validated" data-name="NVIDIA Cloud Validated">
    <path id="NVIDIA_Eye_Mark" data-name="NVIDIA Eye Mark" d="m69.8571,59.77724v-4.17551c.4054-.02889.81484-.05049,1.23207-.06356,11.42029-.35895,18.9125,9.81269,18.9125,9.81269,0,0-8.09203,11.23945-16.76836,11.23945-1.24966,0-2.36794-.20145-3.37621-.5398v-12.66168c4.44603.53704,5.33975,2.50082,8.0134,6.95617l5.94465-5.01222s-4.33928-5.69142-11.65441-5.69142c-.79601,0-1.55663.05625-2.30364.13589m0-13.79328v6.23701c.40993-.03241.82037-.05852,1.23207-.07333,15.88165-.53504,26.22812,13.02464,26.22812,13.02464,0,0-11.8845,14.4514-24.26532,14.4514-1.13438,0-2.19666-.10474-3.19487-.28134v3.85525c.85378.10852,1.73771.17231,2.66058.17231,11.52202,0,19.85396-5.88359,27.92264-12.84779,1.33684,1.07107,6.81376,3.67666,7.94009,4.81881-7.67207,6.42189-25.55017,11.59813-35.68564,11.59813-.97663,0-1.91606-.05903-2.83767-.14744v5.41813h43.79225v-46.22576h-43.79225Zm0,30.06654c-6.00795-2.01856-7.95992-9.0325-7.95992-9.0325,0,0,3.48424-4.16648,7.94333-3.63093.00579,0,.01006.00175.01659.00175v-3.61159c-8.49774.9186-13.6142,6.58767-13.6142,6.58767,0,0,2.95777,11.07742,13.6142,12.97741v-3.29182m-18.92708-10.16561s6.31589-9.3196,18.92708-10.28316v-3.38076c-13.96811,1.12106-26.06437,12.9513-26.06437,12.9513,0,0,6.85067,19.80599,26.06437,21.61932v-3.59402c-14.0995-1.7739-18.92708-17.31268-18.92708-17.31268Z" style="fill: #76b900;"/>
    <path id="NVIDIA_Cloud_Validated-2" data-name="NVIDIA Cloud Validated" d="m192.531,54.71883l.00305,30.34204h8.56893v-30.34152l-8.57197-.00052Zm-67.41037-.04123v30.38327h8.64539v-23.07042l6.69743.00229c2.21865,0,3.7987.55206,4.8678,1.6928,1.35545,1.4444,1.90866,3.77275,1.90866,8.03391v13.34141l8.37508-.00153.00153-16.78505c0-11.98101-7.6371-13.5967-15.10829-13.5967h-15.3876m81.20788.04225v30.34103h13.89879c7.40525,0,9.82215-1.23162,12.43607-3.9929,1.84783-1.93842,3.0415-6.19374,3.0415-10.84408,0-4.26471-1.01043-8.06954-2.7735-10.43885-3.1746-4.23698-7.74834-5.0652-14.57632-5.0652h-12.02655Zm8.50017,6.60658h3.68442c5.34517,0,8.80206,2.40036,8.80206,8.62845,0,6.22963-3.45689,8.62999-8.80206,8.62999h-3.68442v-17.25844Zm-34.65283-6.60658l-7.1516,24.04702-6.85282-24.04548-9.25023-.00154,9.78676,30.34103h12.35056l9.86365-30.34103h-8.74631Zm59.51658,30.34103h8.57044v-30.33949l-8.57247-.00154.00203,30.34103Zm24.02208-30.33008l-11.96574,30.31963h8.44956l1.8931-5.3589h14.16096l1.79208,5.3589h9.17389l-12.05709-30.32216-11.44675.00253Zm5.5625,5.53149l5.19093,14.20422h-10.54576l5.35484-14.20422Zm-181.16294,109.31321c-8.69922,0-15.33789-2.5918-19.91797-7.77734-4.58008-5.18457-6.86914-12.4707-6.86914-21.86133v-3.62891c0-6.04883,1.06445-11.27637,3.19629-15.68359,2.13086-4.40723,5.19824-7.80566,9.20312-10.19629,4.00293-2.38965,8.79883-3.58594,14.3877-3.58594h.86328c5.81836,0,10.68555,1.31055,14.60352,3.93164,3.91699,2.62207,6.68164,6.32227,8.2959,11.10352l-9.16016,3.19727c-.97949-3.22559-2.66504-5.62988-5.05469-7.21582-2.39062-1.58301-5.28613-2.37598-8.68457-2.37598h-.77734c-5.30078,0-9.44824,1.75781-12.44336,5.27148-2.99609,3.51367-4.49316,8.64062-4.49316,15.38086v4.06152c0,6.91211,1.4541,12.09668,4.36426,15.55371,2.9082,3.45605,7.09863,5.18457,12.57227,5.18457h.77734c3.51367,0,6.50977-.77832,8.9873-2.33301,2.47559-1.55566,4.2041-3.88867,5.18457-7l8.98633,3.45703c-1.67188,4.60938-4.50781,8.18066-8.51172,10.71484-4.00391,2.53516-8.88672,3.80176-14.64648,3.80176h-.86328Zm32.66113-1.12305v-63.0791h9.50586v63.0791h-9.50586Zm39.66211,1.12305c-3.97461,0-7.53223-.85059-10.67188-2.54883-3.14062-1.69824-5.63184-4.19141-7.47461-7.47461-1.84375-3.2832-2.76465-7.22852-2.76465-11.83789v-2.76562c0-4.66602.9209-8.62598,2.76465-11.88086,1.84277-3.25391,4.33398-5.74707,7.47461-7.47461,3.13965-1.72852,6.69727-2.59277,10.67188-2.59277h.77734c3.97461,0,7.5459.86426,10.71484,2.59277,3.16797,1.72754,5.66016,4.2207,7.47461,7.47461,1.81445,3.25488,2.72168,7.18652,2.72168,11.79492v2.85156c0,4.60938-.90723,8.55469-2.72168,11.83789s-4.30664,5.77637-7.47461,7.47461c-3.16895,1.69824-6.74023,2.54883-10.71484,2.54883h-.77734Zm0-8.12207h.69141c3.2832,0,6.01855-1.12402,8.20898-3.37012,2.18848-2.24707,3.2832-5.64551,3.2832-10.19629v-3.19727c0-4.55078-1.09473-7.93555-3.2832-10.15332-2.19043-2.2168-4.92578-3.32715-8.20898-3.32715h-.69141c-3.22656,0-5.93359,1.11035-8.12305,3.32715-2.18945,2.21777-3.2832,5.60254-3.2832,10.15332v3.19727c0,4.55078,1.09375,7.94922,3.2832,10.19629,2.18945,2.24609,4.89648,3.37012,8.12305,3.37012Zm46.48828,8.12207c-4.89746,0-8.80078-1.54004-11.70898-4.62305-2.90918-3.08105-4.36328-7.56055-4.36328-13.43652v-27.30566h9.50488v25.92285c0,3.6875.73438,6.49609,2.20312,8.4248,1.46973,1.93066,3.70117,2.89551,6.69727,2.89551h.60449c1.78516,0,3.4707-.46094,5.05566-1.38281,1.58301-.9209,2.87988-2.34668,3.8877-4.27734,1.00781-1.92969,1.5127-4.33398,1.5127-7.21582v-24.36719h9.50488v44.24219h-8.46777v-6.56738c-1.32617,2.3623-3.14062,4.23438-5.44434,5.61621-2.30469,1.38281-5.04102,2.07422-8.20898,2.07422h-.77734Zm50.89453,0c-3.62988,0-6.85645-.83594-9.67773-2.50586-2.82324-1.66992-5.04199-4.13281-6.6543-7.3877-1.61328-3.25391-2.41895-7.24414-2.41895-11.96777v-2.93848c0-4.66602.80566-8.61133,2.41895-11.83789,1.6123-3.22559,3.83105-5.68848,6.6543-7.3877,2.82129-1.69922,6.04785-2.5498,9.67773-2.5498h.60449c2.93848,0,5.54395.56152,7.82031,1.68555,2.27539,1.12305,4.13281,2.72168,5.57324,4.7959v-24.1084h9.50488v63.0791h-8.38184v-6.56738c-1.44043,2.41992-3.36914,4.30664-5.78906,5.66016-2.41992,1.35254-5.3291,2.03027-8.72754,2.03027h-.60449Zm2.16016-8.12207h.69141c1.95703,0,3.78711-.47559,5.48633-1.42578,1.69922-.95117,3.08105-2.43359,4.14844-4.4502,1.06543-2.0166,1.59863-4.66602,1.59863-7.9502v-2.67871c0-3.22559-.5332-5.8457-1.59863-7.86328-1.06738-2.01562-2.44922-3.49902-4.14844-4.4502-1.69922-.9502-3.5293-1.42578-5.48633-1.42578h-.69141c-3.28418,0-6.00586,1.09473-8.16602,3.28418s-3.24023,5.61621-3.24023,10.28223v3.02441c0,4.66602,1.08008,8.10938,3.24023,10.32617,2.16016,2.21777,4.88184,3.32715,8.16602,3.32715Zm71.80566,6.99902l-22.8125-60.4873h10.62793l16.85059,48.04395,16.84961-48.04395h10.19629l-22.98535,60.4873h-8.72656Zm45.10449,1.12305c-4.72461,0-8.38184-1.16602-10.97363-3.5-2.59277-2.33301-3.88867-5.60156-3.88867-9.80664,0-3.62988,1.13672-6.5957,3.41309-8.90039,2.27539-2.30371,5.60156-3.74414,9.98047-4.32031l15.63965-2.07422v-.3457c0-6.56738-2.9375-9.85059-8.81348-9.85059h-.9502c-2.47754,0-4.53711.44629-6.17871,1.33887-1.6416.89453-2.98145,2.40625-4.01758,4.53711l-7.34473-3.80273c1.32422-3.05273,3.49902-5.45703,6.52344-7.21484,3.02441-1.75684,6.69727-2.63574,11.01758-2.63574h1.2959c5.87598,0,10.33984,1.48438,13.39355,4.4502,3.05273,2.96777,4.58008,7.30176,4.58008,13.00488v27.99707h-8.38184v-6.74023c-1.32617,2.41992-3.28418,4.33496-5.87598,5.74609-2.59277,1.41113-5.53027,2.11719-8.81445,2.11719h-.60449Zm14.1709-21.94824l-11.75098,1.72852c-2.99609.40332-5.08496,1.06641-6.26465,1.9873-1.18164.92188-1.77148,2.3623-1.77148,4.32031,0,1.95898.67578,3.5,2.03027,4.62305,1.35254,1.12305,3.26855,1.68457,5.74609,1.68457h.86426c3.39844,0,6.10547-1.0498,8.12207-3.15332,2.0166-2.10254,3.02441-4.91113,3.02441-8.4248v-2.76562Zm20.65137,20.8252v-63.0791h9.50586v63.0791h-9.50586Zm20.99707-52.10547v-9.9375h9.85156v9.9375h-9.85156Zm.17285,52.10547v-44.24219h9.50586v44.24219h-9.50586Zm37.06934,1.12305c-3.62988,0-6.85645-.83594-9.67773-2.50586-2.82324-1.66992-5.04199-4.13281-6.6543-7.3877-1.61328-3.25391-2.41895-7.24414-2.41895-11.96777v-2.93848c0-4.66602.80566-8.61133,2.41895-11.83789,1.6123-3.22559,3.83105-5.68848,6.6543-7.3877,2.82129-1.69922,6.04785-2.5498,9.67773-2.5498h.60449c2.93848,0,5.54395.56152,7.82031,1.68555,2.27539,1.12305,4.13281,2.72168,5.57324,4.7959v-24.1084h9.50488v63.0791h-8.38184v-6.56738c-1.44043,2.41992-3.36914,4.30664-5.78906,5.66016-2.41992,1.35254-5.3291,2.03027-8.72754,2.03027h-.60449Zm2.16016-8.12207h.69141c1.95703,0,3.78711-.47559,5.48633-1.42578,1.69922-.95117,3.08105-2.43359,4.14844-4.4502,1.06543-2.0166,1.59863-4.66602,1.59863-7.9502v-2.67871c0-3.22559-.5332-5.8457-1.59863-7.86328-1.06738-2.01562-2.44922-3.49902-4.14844-4.4502-1.69922-.9502-3.5293-1.42578-5.48633-1.42578h-.69141c-3.28418,0-6.00586,1.09473-8.16602,3.28418s-3.24023,5.61621-3.24023,10.28223v3.02441c0,4.66602,1.08008,8.10938,3.24023,10.32617,2.16016,2.21777,4.88184,3.32715,8.16602,3.32715Zm44.41309,8.12207c-4.72461,0-8.38184-1.16602-10.97363-3.5-2.59277-2.33301-3.88867-5.60156-3.88867-9.80664,0-3.62988,1.13672-6.5957,3.41309-8.90039,2.27539-2.30371,5.60156-3.74414,9.98047-4.32031l15.63965-2.07422v-.3457c0-6.56738-2.9375-9.85059-8.81348-9.85059h-.9502c-2.47754,0-4.53711.44629-6.17871,1.33887-1.6416.89453-2.98145,2.40625-4.01758,4.53711l-7.34473-3.80273c1.32422-3.05273,3.49902-5.45703,6.52344-7.21484,3.02441-1.75684,6.69727-2.63574,11.01758-2.63574h1.2959c5.87598,0,10.33984,1.48438,13.39355,4.4502,3.05273,2.96777,4.58008,7.30176,4.58008,13.00488v27.99707h-8.38184v-6.74023c-1.32617,2.41992-3.28418,4.33496-5.87598,5.74609-2.59277,1.41113-5.53027,2.11719-8.81445,2.11719h-.60449Zm14.1709-21.94824l-11.75098,1.72852c-2.99609.40332-5.08496,1.06641-6.26465,1.9873-1.18164.92188-1.77148,2.3623-1.77148,4.32031,0,1.95898.67578,3.5,2.03027,4.62305,1.35254,1.12305,3.26855,1.68457,5.74609,1.68457h.86426c3.39844,0,6.10547-1.0498,8.12207-3.15332,2.0166-2.10254,3.02441-4.91113,3.02441-8.4248v-2.76562Zm39.57617,21.25684c-5.58789,0-9.56348-1.25293-11.9248-3.75879-2.3623-2.50586-3.54199-6.0918-3.54199-10.75781v-22.29395h-9.33301v-7.86328h9.33301v-13.04785h9.50488v13.04785h14.43066l-1.12402,7.86328h-13.30664v21.86133c0,2.47754.5752,4.24902,1.72754,5.31445,1.15234,1.06641,2.87988,1.59863,5.18457,1.59863h7.51855v8.03613h-8.46875Zm34.38965.69141c-6.45215,0-11.47852-1.88574-15.07812-5.66016-3.60059-3.77246-5.40039-9.14453-5.40039-16.11523v-2.85156c0-6.85449,1.84277-12.22656,5.53027-16.11523,3.68555-3.88867,8.66895-5.83301,14.94824-5.83301h.77832c5.99023,0,10.72852,1.87305,14.21387,5.61719,3.48535,3.74512,5.22852,8.78516,5.22852,15.12109v5.27148h-31.36719c.17285,4.32031,1.22363,7.54688,3.1543,9.67773,1.92871,2.13184,4.59277,3.19727,7.99219,3.19727h1.29688c2.5918,0,4.7373-.44531,6.4375-1.33984,1.69824-.8916,3.06738-2.23145,4.10449-4.01758l6.91211,4.49316c-1.55469,2.65039-3.83105,4.73926-6.82617,6.26465-2.99609,1.52637-6.53906,2.29004-10.62793,2.29004h-1.29688Zm-11.05957-27.21875h22.03418v-.60547c0-3.57129-.90723-6.29297-2.72168-8.16504-1.81543-1.87207-4.33594-2.80859-7.56152-2.80859h-.69141c-3.16797,0-5.71777.98047-7.64648,2.9375-1.93066,1.95898-3.06836,4.83887-3.41309,8.6416Zm56.85645,27.21875c-3.62988,0-6.85645-.83594-9.67773-2.50586-2.82324-1.66992-5.04199-4.13281-6.6543-7.3877-1.61328-3.25391-2.41895-7.24414-2.41895-11.96777v-2.93848c0-4.66602.80566-8.61133,2.41895-11.83789,1.6123-3.22559,3.83105-5.68848,6.6543-7.3877,2.82129-1.69922,6.04785-2.5498,9.67773-2.5498h.60449c2.93848,0,5.54395.56152,7.82031,1.68555,2.27539,1.12305,4.13281,2.72168,5.57324,4.7959v-24.1084h9.50488v63.0791h-8.38184v-6.56738c-1.44043,2.41992-3.36914,4.30664-5.78906,5.66016-2.41992,1.35254-5.3291,2.03027-8.72754,2.03027h-.60449Zm2.16016-8.12207h.69141c1.95703,0,3.78711-.47559,5.48633-1.42578,1.69922-.95117,3.08105-2.43359,4.14844-4.4502,1.06543-2.0166,1.59863-4.66602,1.59863-7.9502v-2.67871c0-3.22559-.5332-5.8457-1.59863-7.86328-1.06738-2.01562-2.44922-3.49902-4.14844-4.4502-1.69922-.9502-3.5293-1.42578-5.48633-1.42578h-.69141c-3.28418,0-6.00586,1.09473-8.16602,3.28418s-3.24023,5.61621-3.24023,10.28223v3.02441c0,4.66602,1.08008,8.10938,3.24023,10.32617,2.16016,2.21777,4.88184,3.32715,8.16602,3.32715Z" style="fill: #fff;"/>
  </g>
</svg>